<svg xmlns="http://www.w3.org/2000/svg" xmlns:xlink="http://www.w3.org/1999/xlink" width="180" zoomAndPan="magnify" viewBox="0 0 135 30.000001" height="40" preserveAspectRatio="xMidYMid meet" version="1.0"><defs><g/><clipPath id="190382d541"><path d="M 39.285156 21.1875 L 83.558594 21.1875 L 83.558594 29.03125 L 39.285156 29.03125 Z M 39.285156 21.1875 " clip-rule="nonzero"/></clipPath><clipPath id="a925441b21"><path d="M 2.175781 1 L 16 1 L 16 19 L 2.175781 19 Z M 2.175781 1 " clip-rule="nonzero"/></clipPath></defs><g clip-path="url(#190382d541)"><path fill="#01abf7" d="M 83.382812 27.214844 C 83.222656 28.453125 82.417969 28.851562 81.257812 28.84375 C 81.242188 28.84375 81.222656 28.84375 81.207031 28.84375 C 78.175781 29.25 74.761719 28.898438 71.6875 28.925781 C 68.289062 28.953125 64.878906 28.960938 61.480469 28.960938 C 54.828125 28.960938 48.175781 28.925781 41.523438 28.976562 C 39.847656 28.988281 39.453125 27.351562 39.488281 25.707031 C 39.480469 25.652344 39.46875 25.597656 39.460938 25.542969 C 39.453125 25.425781 39.441406 25.316406 39.453125 25.199219 C 39.425781 25.101562 39.414062 25 39.425781 24.875 C 39.507812 23.582031 39.585938 22.117188 40.707031 21.585938 C 40.863281 21.457031 41.070312 21.375 41.339844 21.402344 C 41.359375 21.402344 41.367188 21.402344 41.386719 21.402344 C 41.441406 21.394531 41.484375 21.386719 41.539062 21.386719 C 48.472656 21.386719 55.425781 21.476562 62.375 21.492188 C 65.621094 21.503906 68.855469 21.492188 72.101562 21.464844 C 75.066406 21.449219 78.113281 21.1875 81.0625 21.429688 C 82.34375 21.539062 83.148438 21.773438 83.3125 23.164062 C 83.457031 24.484375 83.554688 25.90625 83.382812 27.214844 Z M 83.382812 27.214844 " fill-opacity="1" fill-rule="nonzero"/></g><g fill="#fafffc" fill-opacity="1"><g transform="translate(44.562282, 26.640346)"><g><path d="M 2.0625 0.0625 C 1.8125 0.0625 1.578125 0.0234375 1.359375 -0.046875 C 1.140625 -0.128906 0.945312 -0.25 0.78125 -0.40625 C 0.613281 -0.570312 0.484375 -0.769531 0.390625 -1 C 0.304688 -1.238281 0.265625 -1.515625 0.265625 -1.828125 C 0.265625 -2.128906 0.3125 -2.398438 0.40625 -2.640625 C 0.5 -2.878906 0.625 -3.082031 0.78125 -3.25 C 0.945312 -3.414062 1.140625 -3.539062 1.359375 -3.625 C 1.585938 -3.71875 1.820312 -3.765625 2.0625 -3.765625 C 2.332031 -3.765625 2.5625 -3.710938 2.75 -3.609375 C 2.945312 -3.515625 3.109375 -3.40625 3.234375 -3.28125 L 2.796875 -2.75 C 2.703125 -2.832031 2.597656 -2.898438 2.484375 -2.953125 C 2.378906 -3.015625 2.25 -3.046875 2.09375 -3.046875 C 1.945312 -3.046875 1.8125 -3.015625 1.6875 -2.953125 C 1.570312 -2.898438 1.472656 -2.820312 1.390625 -2.71875 C 1.304688 -2.625 1.238281 -2.5 1.1875 -2.34375 C 1.144531 -2.195312 1.125 -2.035156 1.125 -1.859375 C 1.125 -1.472656 1.207031 -1.175781 1.375 -0.96875 C 1.550781 -0.757812 1.8125 -0.65625 2.15625 -0.65625 C 2.226562 -0.65625 2.300781 -0.660156 2.375 -0.671875 C 2.445312 -0.691406 2.503906 -0.722656 2.546875 -0.765625 L 2.546875 -1.40625 L 1.9375 -1.40625 L 1.9375 -2.078125 L 3.296875 -2.078125 L 3.296875 -0.375 C 3.160156 -0.25 2.988281 -0.144531 2.78125 -0.0625 C 2.570312 0.0195312 2.332031 0.0625 2.0625 0.0625 Z M 2.0625 0.0625 "/></g></g></g><g fill="#fafffc" fill-opacity="1"><g transform="translate(49.903871, 26.640346)"><g><path d="M 1.296875 -1.875 L 1.21875 -1.53125 L 2 -1.53125 L 1.921875 -1.875 C 1.867188 -2.0625 1.816406 -2.257812 1.765625 -2.46875 C 1.710938 -2.675781 1.660156 -2.875 1.609375 -3.0625 L 1.59375 -3.0625 C 1.550781 -2.863281 1.503906 -2.660156 1.453125 -2.453125 C 1.410156 -2.253906 1.359375 -2.0625 1.296875 -1.875 Z M -0.03125 0 L 1.125 -3.703125 L 2.125 -3.703125 L 3.28125 0 L 2.40625 0 L 2.171875 -0.875 L 1.046875 -0.875 L 0.8125 0 Z M -0.03125 0 "/></g></g></g><g fill="#fafffc" fill-opacity="1"><g transform="translate(54.876881, 26.640346)"><g><path d="M 0.4375 0 L 0.4375 -3.703125 L 1.484375 -3.703125 C 1.765625 -3.703125 2.019531 -3.664062 2.25 -3.59375 C 2.476562 -3.519531 2.671875 -3.40625 2.828125 -3.25 C 2.992188 -3.101562 3.117188 -2.914062 3.203125 -2.6875 C 3.285156 -2.457031 3.328125 -2.179688 3.328125 -1.859375 C 3.328125 -1.546875 3.285156 -1.269531 3.203125 -1.03125 C 3.117188 -0.800781 2.992188 -0.609375 2.828125 -0.453125 C 2.671875 -0.304688 2.484375 -0.191406 2.265625 -0.109375 C 2.046875 -0.0351562 1.800781 0 1.53125 0 Z M 1.265625 -0.671875 L 1.421875 -0.671875 C 1.585938 -0.671875 1.734375 -0.691406 1.859375 -0.734375 C 1.984375 -0.773438 2.09375 -0.84375 2.1875 -0.9375 C 2.28125 -1.03125 2.351562 -1.148438 2.40625 -1.296875 C 2.457031 -1.453125 2.484375 -1.640625 2.484375 -1.859375 C 2.484375 -2.078125 2.457031 -2.257812 2.40625 -2.40625 C 2.351562 -2.5625 2.28125 -2.679688 2.1875 -2.765625 C 2.09375 -2.859375 1.984375 -2.921875 1.859375 -2.953125 C 1.734375 -2.992188 1.585938 -3.015625 1.421875 -3.015625 L 1.265625 -3.015625 Z M 1.265625 -0.671875 "/></g></g></g><g fill="#fafffc" fill-opacity="1"><g transform="translate(60.201461, 26.640346)"><g><path d="M 2.0625 0.0625 C 1.8125 0.0625 1.578125 0.0234375 1.359375 -0.046875 C 1.140625 -0.128906 0.945312 -0.25 0.78125 -0.40625 C 0.613281 -0.570312 0.484375 -0.769531 0.390625 -1 C 0.304688 -1.238281 0.265625 -1.515625 0.265625 -1.828125 C 0.265625 -2.128906 0.3125 -2.398438 0.40625 -2.640625 C 0.5 -2.878906 0.625 -3.082031 0.78125 -3.25 C 0.945312 -3.414062 1.140625 -3.539062 1.359375 -3.625 C 1.585938 -3.71875 1.820312 -3.765625 2.0625 -3.765625 C 2.332031 -3.765625 2.5625 -3.710938 2.75 -3.609375 C 2.945312 -3.515625 3.109375 -3.40625 3.234375 -3.28125 L 2.796875 -2.75 C 2.703125 -2.832031 2.597656 -2.898438 2.484375 -2.953125 C 2.378906 -3.015625 2.25 -3.046875 2.09375 -3.046875 C 1.945312 -3.046875 1.8125 -3.015625 1.6875 -2.953125 C 1.570312 -2.898438 1.472656 -2.820312 1.390625 -2.71875 C 1.304688 -2.625 1.238281 -2.5 1.1875 -2.34375 C 1.144531 -2.195312 1.125 -2.035156 1.125 -1.859375 C 1.125 -1.472656 1.207031 -1.175781 1.375 -0.96875 C 1.550781 -0.757812 1.8125 -0.65625 2.15625 -0.65625 C 2.226562 -0.65625 2.300781 -0.660156 2.375 -0.671875 C 2.445312 -0.691406 2.503906 -0.722656 2.546875 -0.765625 L 2.546875 -1.40625 L 1.9375 -1.40625 L 1.9375 -2.078125 L 3.296875 -2.078125 L 3.296875 -0.375 C 3.160156 -0.25 2.988281 -0.144531 2.78125 -0.0625 C 2.570312 0.0195312 2.332031 0.0625 2.0625 0.0625 Z M 2.0625 0.0625 "/></g></g></g><g fill="#fafffc" fill-opacity="1"><g transform="translate(65.54305, 26.640346)"><g><path d="M 0.4375 0 L 0.4375 -3.703125 L 2.75 -3.703125 L 2.75 -3 L 1.265625 -3 L 1.265625 -2.25 L 2.53125 -2.25 L 2.53125 -1.546875 L 1.265625 -1.546875 L 1.265625 -0.703125 L 2.8125 -0.703125 L 2.8125 0 Z M 0.4375 0 "/></g></g></g><g fill="#fafffc" fill-opacity="1"><g transform="translate(70.374297, 26.640346)"><g><path d="M 1.15625 0 L 1.15625 -3 L 0.140625 -3 L 0.140625 -3.703125 L 3.015625 -3.703125 L 3.015625 -3 L 2 -3 L 2 0 Z M 1.15625 0 "/></g></g></g><g fill="#fafffc" fill-opacity="1"><g transform="translate(75.250906, 26.640346)"><g><path d="M 1.5625 0.0625 C 1.320312 0.0625 1.082031 0.0195312 0.84375 -0.0625 C 0.601562 -0.15625 0.390625 -0.289062 0.203125 -0.46875 L 0.671875 -1.03125 C 0.804688 -0.925781 0.953125 -0.835938 1.109375 -0.765625 C 1.273438 -0.691406 1.4375 -0.65625 1.59375 -0.65625 C 1.757812 -0.65625 1.882812 -0.6875 1.96875 -0.75 C 2.0625 -0.8125 2.109375 -0.898438 2.109375 -1.015625 C 2.109375 -1.066406 2.09375 -1.113281 2.0625 -1.15625 C 2.039062 -1.195312 2.003906 -1.234375 1.953125 -1.265625 C 1.910156 -1.296875 1.851562 -1.328125 1.78125 -1.359375 C 1.71875 -1.390625 1.648438 -1.421875 1.578125 -1.453125 L 1.09375 -1.65625 C 1 -1.695312 0.90625 -1.742188 0.8125 -1.796875 C 0.726562 -1.859375 0.648438 -1.929688 0.578125 -2.015625 C 0.503906 -2.097656 0.445312 -2.191406 0.40625 -2.296875 C 0.363281 -2.410156 0.34375 -2.535156 0.34375 -2.671875 C 0.34375 -2.816406 0.375 -2.957031 0.4375 -3.09375 C 0.5 -3.226562 0.585938 -3.34375 0.703125 -3.4375 C 0.828125 -3.539062 0.96875 -3.617188 1.125 -3.671875 C 1.289062 -3.734375 1.46875 -3.765625 1.65625 -3.765625 C 1.875 -3.765625 2.085938 -3.722656 2.296875 -3.640625 C 2.503906 -3.554688 2.691406 -3.4375 2.859375 -3.28125 L 2.421875 -2.75 C 2.304688 -2.84375 2.1875 -2.914062 2.0625 -2.96875 C 1.945312 -3.019531 1.8125 -3.046875 1.65625 -3.046875 C 1.519531 -3.046875 1.40625 -3.015625 1.3125 -2.953125 C 1.226562 -2.898438 1.1875 -2.820312 1.1875 -2.71875 C 1.1875 -2.65625 1.203125 -2.601562 1.234375 -2.5625 C 1.265625 -2.519531 1.300781 -2.484375 1.34375 -2.453125 C 1.394531 -2.421875 1.457031 -2.390625 1.53125 -2.359375 C 1.601562 -2.335938 1.675781 -2.3125 1.75 -2.28125 L 2.234375 -2.078125 C 2.453125 -1.992188 2.625 -1.867188 2.75 -1.703125 C 2.882812 -1.546875 2.953125 -1.335938 2.953125 -1.078125 C 2.953125 -0.921875 2.921875 -0.773438 2.859375 -0.640625 C 2.804688 -0.503906 2.71875 -0.382812 2.59375 -0.28125 C 2.476562 -0.175781 2.332031 -0.09375 2.15625 -0.03125 C 1.976562 0.03125 1.78125 0.0625 1.5625 0.0625 Z M 1.5625 0.0625 "/></g></g></g><g clip-path="url(#a925441b21)"><g fill="#f15922" fill-opacity="1"><g transform="translate(1.875974, 18.094966)"><g><path d="M 6.953125 0.296875 C 5.878906 0.296875 4.804688 0.101562 3.734375 -0.28125 C 2.671875 -0.675781 1.71875 -1.269531 0.875 -2.0625 L 3 -4.609375 C 3.582031 -4.097656 4.226562 -3.679688 4.9375 -3.359375 C 5.65625 -3.046875 6.359375 -2.890625 7.046875 -2.890625 C 7.816406 -2.890625 8.390625 -3.03125 8.765625 -3.3125 C 9.148438 -3.601562 9.34375 -3.992188 9.34375 -4.484375 C 9.34375 -4.734375 9.285156 -4.945312 9.171875 -5.125 C 9.066406 -5.3125 8.90625 -5.476562 8.6875 -5.625 C 8.476562 -5.769531 8.226562 -5.90625 7.9375 -6.03125 C 7.644531 -6.15625 7.320312 -6.289062 6.96875 -6.4375 L 4.828125 -7.34375 C 4.410156 -7.519531 4.003906 -7.738281 3.609375 -8 C 3.210938 -8.269531 2.859375 -8.582031 2.546875 -8.9375 C 2.242188 -9.300781 2 -9.722656 1.8125 -10.203125 C 1.625 -10.679688 1.53125 -11.222656 1.53125 -11.828125 C 1.53125 -12.503906 1.671875 -13.140625 1.953125 -13.734375 C 2.242188 -14.328125 2.648438 -14.84375 3.171875 -15.28125 C 3.691406 -15.726562 4.304688 -16.078125 5.015625 -16.328125 C 5.734375 -16.585938 6.519531 -16.71875 7.375 -16.71875 C 8.332031 -16.71875 9.273438 -16.53125 10.203125 -16.15625 C 11.140625 -15.789062 11.957031 -15.253906 12.65625 -14.546875 L 10.78125 -12.203125 C 10.238281 -12.628906 9.695312 -12.953125 9.15625 -13.171875 C 8.625 -13.398438 8.03125 -13.515625 7.375 -13.515625 C 6.738281 -13.515625 6.226562 -13.382812 5.84375 -13.125 C 5.46875 -12.863281 5.28125 -12.5 5.28125 -12.03125 C 5.28125 -11.78125 5.34375 -11.566406 5.46875 -11.390625 C 5.59375 -11.210938 5.769531 -11.050781 6 -10.90625 C 6.226562 -10.769531 6.492188 -10.640625 6.796875 -10.515625 C 7.097656 -10.390625 7.425781 -10.25 7.78125 -10.09375 L 9.890625 -9.234375 C 10.898438 -8.835938 11.691406 -8.285156 12.265625 -7.578125 C 12.847656 -6.867188 13.140625 -5.9375 13.140625 -4.78125 C 13.140625 -4.09375 13 -3.441406 12.71875 -2.828125 C 12.445312 -2.210938 12.046875 -1.675781 11.515625 -1.21875 C 10.984375 -0.757812 10.332031 -0.390625 9.5625 -0.109375 C 8.789062 0.160156 7.921875 0.296875 6.953125 0.296875 Z M 6.953125 0.296875 "/></g></g></g></g><g fill="#f15922" fill-opacity="1"><g transform="translate(17.661798, 18.094966)"><g><path d="M 1.640625 4.625 L 1.640625 -12.484375 L 4.65625 -12.484375 L 4.90625 -11.25 L 5.015625 -11.25 C 5.492188 -11.6875 6.039062 -12.050781 6.65625 -12.34375 C 7.269531 -12.632812 7.90625 -12.78125 8.5625 -12.78125 C 9.3125 -12.78125 9.988281 -12.628906 10.59375 -12.328125 C 11.195312 -12.023438 11.707031 -11.597656 12.125 -11.046875 C 12.550781 -10.492188 12.875 -9.828125 13.09375 -9.046875 C 13.320312 -8.265625 13.4375 -7.394531 13.4375 -6.4375 C 13.4375 -5.363281 13.289062 -4.410156 13 -3.578125 C 12.707031 -2.753906 12.3125 -2.050781 11.8125 -1.46875 C 11.320312 -0.894531 10.757812 -0.457031 10.125 -0.15625 C 9.5 0.144531 8.851562 0.296875 8.1875 0.296875 C 7.644531 0.296875 7.117188 0.1875 6.609375 -0.03125 C 6.109375 -0.257812 5.640625 -0.582031 5.203125 -1 L 5.34375 0.984375 L 5.34375 4.625 Z M 7.328125 -2.71875 C 7.960938 -2.71875 8.503906 -3.003906 8.953125 -3.578125 C 9.410156 -4.160156 9.640625 -5.097656 9.640625 -6.390625 C 9.640625 -8.640625 8.914062 -9.765625 7.46875 -9.765625 C 6.75 -9.765625 6.039062 -9.390625 5.34375 -8.640625 L 5.34375 -3.53125 C 5.675781 -3.226562 6.007812 -3.015625 6.34375 -2.890625 C 6.675781 -2.773438 7.003906 -2.71875 7.328125 -2.71875 Z M 7.328125 -2.71875 "/></g></g></g><g fill="#f15922" fill-opacity="1"><g transform="translate(33.875625, 18.094966)"><g><path d="M 1.640625 0 L 1.640625 -12.484375 L 5.34375 -12.484375 L 5.34375 0 Z M 3.46875 -14.328125 C 2.851562 -14.328125 2.34375 -14.503906 1.9375 -14.859375 C 1.53125 -15.222656 1.328125 -15.691406 1.328125 -16.265625 C 1.328125 -16.828125 1.53125 -17.285156 1.9375 -17.640625 C 2.34375 -17.992188 2.851562 -18.171875 3.46875 -18.171875 C 4.113281 -18.171875 4.628906 -17.992188 5.015625 -17.640625 C 5.410156 -17.285156 5.609375 -16.828125 5.609375 -16.265625 C 5.609375 -15.691406 5.410156 -15.222656 5.015625 -14.859375 C 4.628906 -14.503906 4.113281 -14.328125 3.46875 -14.328125 Z M 3.46875 -14.328125 "/></g></g></g><g fill="#f15922" fill-opacity="1"><g transform="translate(42.612059, 18.094966)"><g><path d="M 1.640625 0 L 1.640625 -12.484375 L 4.65625 -12.484375 L 4.90625 -10.296875 L 5.015625 -10.296875 C 5.460938 -11.148438 6.003906 -11.773438 6.640625 -12.171875 C 7.285156 -12.578125 7.925781 -12.78125 8.5625 -12.78125 C 8.914062 -12.78125 9.203125 -12.757812 9.421875 -12.71875 C 9.648438 -12.675781 9.859375 -12.613281 10.046875 -12.53125 L 9.4375 -9.34375 C 9.207031 -9.40625 8.988281 -9.453125 8.78125 -9.484375 C 8.582031 -9.523438 8.347656 -9.546875 8.078125 -9.546875 C 7.609375 -9.546875 7.117188 -9.375 6.609375 -9.03125 C 6.097656 -8.695312 5.675781 -8.101562 5.34375 -7.25 L 5.34375 0 Z M 1.640625 0 "/></g></g></g><g fill="#f15922" fill-opacity="1"><g transform="translate(54.420014, 18.094966)"><g><path d="M 4.78125 0.296875 C 4.207031 0.296875 3.691406 0.195312 3.234375 0 C 2.773438 -0.1875 2.382812 -0.453125 2.0625 -0.796875 C 1.738281 -1.140625 1.488281 -1.535156 1.3125 -1.984375 C 1.144531 -2.441406 1.0625 -2.9375 1.0625 -3.46875 C 1.0625 -4.78125 1.613281 -5.804688 2.71875 -6.546875 C 3.820312 -7.285156 5.609375 -7.78125 8.078125 -8.03125 C 8.046875 -8.582031 7.882812 -9.019531 7.59375 -9.34375 C 7.300781 -9.675781 6.804688 -9.84375 6.109375 -9.84375 C 5.578125 -9.84375 5.046875 -9.738281 4.515625 -9.53125 C 3.984375 -9.332031 3.414062 -9.054688 2.8125 -8.703125 L 1.484375 -11.15625 C 2.285156 -11.632812 3.128906 -12.023438 4.015625 -12.328125 C 4.898438 -12.628906 5.835938 -12.78125 6.828125 -12.78125 C 8.429688 -12.78125 9.65625 -12.320312 10.5 -11.40625 C 11.351562 -10.5 11.78125 -9.082031 11.78125 -7.15625 L 11.78125 0 L 8.765625 0 L 8.515625 -1.28125 L 8.40625 -1.28125 C 7.875 -0.8125 7.3125 -0.429688 6.71875 -0.140625 C 6.132812 0.148438 5.488281 0.296875 4.78125 0.296875 Z M 6.046875 -2.5625 C 6.460938 -2.5625 6.820312 -2.65625 7.125 -2.84375 C 7.425781 -3.03125 7.742188 -3.289062 8.078125 -3.625 L 8.078125 -5.8125 C 6.765625 -5.625 5.859375 -5.351562 5.359375 -5 C 4.859375 -4.65625 4.609375 -4.238281 4.609375 -3.75 C 4.609375 -3.34375 4.738281 -3.039062 5 -2.84375 C 5.257812 -2.65625 5.609375 -2.5625 6.046875 -2.5625 Z M 6.046875 -2.5625 "/></g></g></g><g fill="#f15922" fill-opacity="1"><g transform="translate(69.475724, 18.094966)"><g><path d="M 5.03125 0.296875 C 4.394531 0.296875 3.859375 0.195312 3.421875 0 C 2.984375 -0.195312 2.632812 -0.476562 2.375 -0.84375 C 2.113281 -1.207031 1.925781 -1.644531 1.8125 -2.15625 C 1.695312 -2.664062 1.640625 -3.238281 1.640625 -3.875 L 1.640625 -17.640625 L 5.34375 -17.640625 L 5.34375 -3.71875 C 5.34375 -3.332031 5.410156 -3.0625 5.546875 -2.90625 C 5.691406 -2.757812 5.835938 -2.6875 5.984375 -2.6875 C 6.066406 -2.6875 6.140625 -2.6875 6.203125 -2.6875 C 6.265625 -2.6875 6.34375 -2.707031 6.4375 -2.75 L 6.890625 0 C 6.691406 0.0820312 6.4375 0.148438 6.125 0.203125 C 5.8125 0.265625 5.445312 0.296875 5.03125 0.296875 Z M 5.03125 0.296875 "/></g></g></g><g fill="#f15922" fill-opacity="1"><g transform="translate(17.418247, 28.726871)"><g><path d="M 1.890625 0 L 1.890625 -19.625 L 5.609375 -19.625 L 5.609375 0 Z M 1.890625 0 "/></g></g></g></svg>