<svg xmlns="http://www.w3.org/2000/svg" xmlns:xlink="http://www.w3.org/1999/xlink" width="180" zoomAndPan="magnify" viewBox="0 0 135 30.000001" height="40" preserveAspectRatio="xMidYMid meet" version="1.0"><defs><g/><clipPath id="1dbb9f8fd8"><path d="M 75.285156 4 L 78.1875 4 L 78.1875 7.546875 L 75.285156 7.546875 Z M 75.285156 4 " clip-rule="nonzero"/></clipPath><clipPath id="7800578ff6"><path d="M 41 22.792969 L 75.085938 22.792969 L 75.085938 29 L 41 29 Z M 41 22.792969 " clip-rule="nonzero"/></clipPath></defs><g fill="#f15922" fill-opacity="1"><g transform="translate(3.906694, 19.723908)"><g><path d="M 6.59375 0.28125 C 5.570312 0.28125 4.554688 0.0976562 3.546875 -0.265625 C 2.535156 -0.640625 1.628906 -1.203125 0.828125 -1.953125 L 2.84375 -4.375 C 3.394531 -3.894531 4.007812 -3.503906 4.6875 -3.203125 C 5.363281 -2.898438 6.03125 -2.75 6.6875 -2.75 C 7.414062 -2.75 7.957031 -2.882812 8.3125 -3.15625 C 8.675781 -3.425781 8.859375 -3.789062 8.859375 -4.25 C 8.859375 -4.488281 8.804688 -4.695312 8.703125 -4.875 C 8.597656 -5.050781 8.445312 -5.203125 8.25 -5.328125 C 8.050781 -5.460938 7.8125 -5.585938 7.53125 -5.703125 C 7.25 -5.828125 6.941406 -5.960938 6.609375 -6.109375 L 4.578125 -6.96875 C 4.179688 -7.125 3.796875 -7.328125 3.421875 -7.578125 C 3.046875 -7.835938 2.710938 -8.140625 2.421875 -8.484375 C 2.128906 -8.828125 1.894531 -9.222656 1.71875 -9.671875 C 1.539062 -10.128906 1.453125 -10.644531 1.453125 -11.21875 C 1.453125 -11.851562 1.585938 -12.453125 1.859375 -13.015625 C 2.128906 -13.585938 2.507812 -14.082031 3 -14.5 C 3.5 -14.925781 4.085938 -15.257812 4.765625 -15.5 C 5.441406 -15.738281 6.1875 -15.859375 7 -15.859375 C 7.90625 -15.859375 8.796875 -15.679688 9.671875 -15.328125 C 10.554688 -14.972656 11.335938 -14.460938 12.015625 -13.796875 L 10.21875 -11.578125 C 9.707031 -11.972656 9.195312 -12.28125 8.6875 -12.5 C 8.175781 -12.71875 7.613281 -12.828125 7 -12.828125 C 6.394531 -12.828125 5.910156 -12.703125 5.546875 -12.453125 C 5.191406 -12.203125 5.015625 -11.851562 5.015625 -11.40625 C 5.015625 -11.164062 5.070312 -10.960938 5.1875 -10.796875 C 5.3125 -10.628906 5.476562 -10.476562 5.6875 -10.34375 C 5.90625 -10.207031 6.15625 -10.078125 6.4375 -9.953125 C 6.726562 -9.835938 7.039062 -9.710938 7.375 -9.578125 L 9.390625 -8.765625 C 10.335938 -8.378906 11.085938 -7.851562 11.640625 -7.1875 C 12.191406 -6.519531 12.46875 -5.632812 12.46875 -4.53125 C 12.46875 -3.882812 12.332031 -3.269531 12.0625 -2.6875 C 11.800781 -2.101562 11.421875 -1.59375 10.921875 -1.15625 C 10.421875 -0.71875 9.800781 -0.367188 9.0625 -0.109375 C 8.332031 0.148438 7.507812 0.28125 6.59375 0.28125 Z M 6.59375 0.28125 "/></g></g></g><g fill="#f15922" fill-opacity="1"><g transform="translate(18.874031, 19.723908)"><g><path d="M 1.546875 4.390625 L 1.546875 -11.84375 L 4.421875 -11.84375 L 4.65625 -10.671875 L 4.75 -10.671875 C 5.207031 -11.085938 5.726562 -11.429688 6.3125 -11.703125 C 6.894531 -11.984375 7.5 -12.125 8.125 -12.125 C 8.832031 -12.125 9.472656 -11.976562 10.046875 -11.6875 C 10.617188 -11.40625 11.101562 -11 11.5 -10.46875 C 11.90625 -9.945312 12.210938 -9.316406 12.421875 -8.578125 C 12.640625 -7.835938 12.75 -7.015625 12.75 -6.109375 C 12.75 -5.085938 12.609375 -4.179688 12.328125 -3.390625 C 12.046875 -2.609375 11.671875 -1.941406 11.203125 -1.390625 C 10.734375 -0.847656 10.203125 -0.429688 9.609375 -0.140625 C 9.015625 0.140625 8.398438 0.28125 7.765625 0.28125 C 7.253906 0.28125 6.757812 0.175781 6.28125 -0.03125 C 5.800781 -0.25 5.351562 -0.554688 4.9375 -0.953125 L 5.0625 0.9375 L 5.0625 4.390625 Z M 6.953125 -2.578125 C 7.554688 -2.578125 8.070312 -2.847656 8.5 -3.390625 C 8.925781 -3.941406 9.140625 -4.832031 9.140625 -6.0625 C 9.140625 -8.195312 8.457031 -9.265625 7.09375 -9.265625 C 6.40625 -9.265625 5.726562 -8.90625 5.0625 -8.1875 L 5.0625 -3.34375 C 5.375 -3.050781 5.691406 -2.847656 6.015625 -2.734375 C 6.335938 -2.628906 6.648438 -2.578125 6.953125 -2.578125 Z M 6.953125 -2.578125 "/></g></g></g><g fill="#f15922" fill-opacity="1"><g transform="translate(34.247177, 19.723908)"><g><path d="M 1.546875 0 L 1.546875 -11.84375 L 5.0625 -11.84375 L 5.0625 0 Z M 3.296875 -13.578125 C 2.703125 -13.578125 2.210938 -13.75 1.828125 -14.09375 C 1.453125 -14.4375 1.265625 -14.878906 1.265625 -15.421875 C 1.265625 -15.960938 1.453125 -16.398438 1.828125 -16.734375 C 2.210938 -17.066406 2.703125 -17.234375 3.296875 -17.234375 C 3.898438 -17.234375 4.390625 -17.066406 4.765625 -16.734375 C 5.140625 -16.398438 5.328125 -15.960938 5.328125 -15.421875 C 5.328125 -14.878906 5.140625 -14.4375 4.765625 -14.09375 C 4.390625 -13.75 3.898438 -13.578125 3.296875 -13.578125 Z M 3.296875 -13.578125 "/></g></g></g><g fill="#f15922" fill-opacity="1"><g transform="translate(42.53063, 19.723908)"><g><path d="M 1.546875 0 L 1.546875 -11.84375 L 4.421875 -11.84375 L 4.65625 -9.765625 L 4.75 -9.765625 C 5.175781 -10.578125 5.691406 -11.171875 6.296875 -11.546875 C 6.898438 -11.929688 7.507812 -12.125 8.125 -12.125 C 8.457031 -12.125 8.726562 -12.101562 8.9375 -12.0625 C 9.15625 -12.03125 9.351562 -11.972656 9.53125 -11.890625 L 8.953125 -8.859375 C 8.734375 -8.921875 8.523438 -8.96875 8.328125 -9 C 8.140625 -9.03125 7.914062 -9.046875 7.65625 -9.046875 C 7.21875 -9.046875 6.753906 -8.882812 6.265625 -8.5625 C 5.773438 -8.25 5.375 -7.6875 5.0625 -6.875 L 5.0625 0 Z M 1.546875 0 "/></g></g></g><g fill="#f15922" fill-opacity="1"><g transform="translate(53.726347, 19.723908)"><g><path d="M 4.53125 0.28125 C 3.988281 0.28125 3.5 0.1875 3.0625 0 C 2.625 -0.175781 2.253906 -0.425781 1.953125 -0.75 C 1.648438 -1.070312 1.414062 -1.445312 1.25 -1.875 C 1.082031 -2.3125 1 -2.785156 1 -3.296875 C 1 -4.535156 1.523438 -5.503906 2.578125 -6.203125 C 3.628906 -6.910156 5.320312 -7.378906 7.65625 -7.609375 C 7.625 -8.140625 7.46875 -8.554688 7.1875 -8.859375 C 6.914062 -9.171875 6.453125 -9.328125 5.796875 -9.328125 C 5.285156 -9.328125 4.78125 -9.234375 4.28125 -9.046875 C 3.78125 -8.859375 3.242188 -8.597656 2.671875 -8.265625 L 1.40625 -10.578125 C 2.164062 -11.035156 2.960938 -11.40625 3.796875 -11.6875 C 4.640625 -11.976562 5.53125 -12.125 6.46875 -12.125 C 8 -12.125 9.164062 -11.691406 9.96875 -10.828125 C 10.769531 -9.960938 11.171875 -8.613281 11.171875 -6.78125 L 11.171875 0 L 8.3125 0 L 8.0625 -1.21875 L 7.96875 -1.21875 C 7.457031 -0.769531 6.921875 -0.40625 6.359375 -0.125 C 5.804688 0.144531 5.195312 0.28125 4.53125 0.28125 Z M 5.734375 -2.4375 C 6.128906 -2.4375 6.46875 -2.519531 6.75 -2.6875 C 7.039062 -2.863281 7.34375 -3.113281 7.65625 -3.4375 L 7.65625 -5.515625 C 6.414062 -5.335938 5.554688 -5.082031 5.078125 -4.75 C 4.609375 -4.414062 4.375 -4.019531 4.375 -3.5625 C 4.375 -3.175781 4.492188 -2.890625 4.734375 -2.703125 C 4.984375 -2.523438 5.316406 -2.4375 5.734375 -2.4375 Z M 5.734375 -2.4375 "/></g></g></g><g fill="#f15922" fill-opacity="1"><g transform="translate(68.001425, 19.723908)"><g><path d="M 4.78125 0.28125 C 4.175781 0.28125 3.664062 0.1875 3.25 0 C 2.832031 -0.1875 2.5 -0.453125 2.25 -0.796875 C 2.007812 -1.140625 1.832031 -1.550781 1.71875 -2.03125 C 1.601562 -2.519531 1.546875 -3.066406 1.546875 -3.671875 L 1.546875 -16.734375 L 5.0625 -16.734375 L 5.0625 -3.53125 C 5.0625 -3.164062 5.128906 -2.910156 5.265625 -2.765625 C 5.398438 -2.617188 5.539062 -2.546875 5.6875 -2.546875 C 5.757812 -2.546875 5.820312 -2.546875 5.875 -2.546875 C 5.9375 -2.546875 6.015625 -2.566406 6.109375 -2.609375 L 6.546875 0 C 6.347656 0.0820312 6.101562 0.148438 5.8125 0.203125 C 5.519531 0.253906 5.175781 0.28125 4.78125 0.28125 Z M 4.78125 0.28125 "/></g></g></g><g fill="#f15922" fill-opacity="1"><g transform="translate(18.649848, 28.41544)"><g><path d="M 1.828125 0 L 1.828125 -18.9375 L 5.40625 -18.9375 L 5.40625 0 Z M 1.828125 0 "/></g></g></g><path fill="#f15922" d="M 77.230469 5.375 C 77.230469 5.269531 77.191406 5.179688 77.117188 5.101562 C 77.039062 5.027344 76.949219 4.988281 76.84375 4.988281 L 76.28125 4.988281 C 76.246094 4.988281 76.230469 5.007812 76.230469 5.039062 L 76.230469 6.382812 C 76.230469 6.417969 76.25 6.433594 76.28125 6.433594 C 76.316406 6.433594 76.332031 6.417969 76.335938 6.382812 L 76.335938 5.765625 L 76.820312 5.765625 C 76.90625 5.765625 76.976562 5.792969 77.039062 5.855469 C 77.097656 5.914062 77.125 5.984375 77.125 6.070312 L 77.125 6.382812 C 77.128906 6.417969 77.144531 6.433594 77.179688 6.433594 C 77.210938 6.433594 77.230469 6.417969 77.230469 6.382812 L 77.230469 6.070312 C 77.230469 5.914062 77.164062 5.796875 77.027344 5.71875 C 77.164062 5.644531 77.230469 5.53125 77.230469 5.375 Z M 76.84375 5.660156 L 76.335938 5.660156 L 76.335938 5.09375 L 76.84375 5.09375 C 76.921875 5.09375 76.988281 5.121094 77.042969 5.175781 C 77.097656 5.230469 77.125 5.296875 77.125 5.375 C 77.125 5.453125 77.097656 5.519531 77.042969 5.578125 C 76.988281 5.632812 76.921875 5.660156 76.84375 5.660156 Z M 76.84375 5.660156 " fill-opacity="1" fill-rule="nonzero"/><g clip-path="url(#1dbb9f8fd8)"><path fill="#f15922" d="M 76.730469 4.265625 C 76.539062 4.265625 76.355469 4.304688 76.175781 4.378906 C 76 4.449219 75.84375 4.554688 75.707031 4.691406 C 75.574219 4.828125 75.46875 4.984375 75.394531 5.160156 C 75.320312 5.335938 75.285156 5.519531 75.285156 5.710938 C 75.363281 7.628906 78.097656 7.628906 78.175781 5.710938 C 78.175781 5.519531 78.140625 5.335938 78.066406 5.160156 C 77.992188 4.984375 77.886719 4.828125 77.753906 4.691406 C 77.617188 4.554688 77.460938 4.449219 77.285156 4.378906 C 77.105469 4.304688 76.921875 4.265625 76.730469 4.265625 Z M 76.730469 7.054688 C 76.550781 7.054688 76.382812 7.019531 76.21875 6.953125 C 76.050781 6.882812 75.90625 6.789062 75.78125 6.660156 C 75.65625 6.535156 75.558594 6.390625 75.492188 6.226562 C 75.421875 6.0625 75.386719 5.890625 75.386719 5.710938 C 75.460938 3.929688 78 3.933594 78.074219 5.710938 C 78.074219 5.890625 78.039062 6.0625 77.96875 6.226562 C 77.902344 6.390625 77.804688 6.535156 77.679688 6.660156 C 77.554688 6.789062 77.410156 6.882812 77.242188 6.953125 C 77.078125 7.019531 76.910156 7.054688 76.730469 7.054688 Z M 76.730469 7.054688 " fill-opacity="1" fill-rule="nonzero"/></g><g fill="#f15922" fill-opacity="1"><g transform="translate(66.092678, 2.138549)"><g><path d="M 0.1875 0 L 0.1875 -1.578125 L 1.171875 -1.578125 L 1.171875 -1.28125 L 0.546875 -1.28125 L 0.546875 -0.96875 L 1.078125 -0.96875 L 1.078125 -0.65625 L 0.546875 -0.65625 L 0.546875 -0.296875 L 1.203125 -0.296875 L 1.203125 0 Z M 0.1875 0 "/></g></g></g><g fill="#f15922" fill-opacity="1"><g transform="translate(67.587447, 2.138549)"><g><path d="M 0.671875 0.03125 C 0.566406 0.03125 0.460938 0.015625 0.359375 -0.015625 C 0.253906 -0.0546875 0.160156 -0.117188 0.078125 -0.203125 L 0.28125 -0.4375 C 0.34375 -0.394531 0.40625 -0.359375 0.46875 -0.328125 C 0.539062 -0.296875 0.609375 -0.28125 0.671875 -0.28125 C 0.753906 -0.28125 0.8125 -0.289062 0.84375 -0.3125 C 0.882812 -0.34375 0.90625 -0.382812 0.90625 -0.4375 C 0.90625 -0.457031 0.894531 -0.472656 0.875 -0.484375 C 0.863281 -0.503906 0.847656 -0.519531 0.828125 -0.53125 C 0.816406 -0.550781 0.796875 -0.566406 0.765625 -0.578125 C 0.734375 -0.585938 0.703125 -0.601562 0.671875 -0.625 L 0.46875 -0.703125 C 0.425781 -0.722656 0.382812 -0.742188 0.34375 -0.765625 C 0.3125 -0.796875 0.28125 -0.828125 0.25 -0.859375 C 0.21875 -0.890625 0.191406 -0.925781 0.171875 -0.96875 C 0.148438 -1.019531 0.140625 -1.078125 0.140625 -1.140625 C 0.140625 -1.203125 0.15625 -1.257812 0.1875 -1.3125 C 0.21875 -1.375 0.253906 -1.425781 0.296875 -1.46875 C 0.347656 -1.507812 0.410156 -1.539062 0.484375 -1.5625 C 0.554688 -1.59375 0.628906 -1.609375 0.703125 -1.609375 C 0.796875 -1.609375 0.882812 -1.585938 0.96875 -1.546875 C 1.0625 -1.515625 1.144531 -1.46875 1.21875 -1.40625 L 1.03125 -1.171875 C 0.976562 -1.210938 0.925781 -1.242188 0.875 -1.265625 C 0.820312 -1.285156 0.765625 -1.296875 0.703125 -1.296875 C 0.648438 -1.296875 0.601562 -1.28125 0.5625 -1.25 C 0.53125 -1.226562 0.515625 -1.195312 0.515625 -1.15625 C 0.515625 -1.132812 0.519531 -1.113281 0.53125 -1.09375 C 0.539062 -1.082031 0.554688 -1.066406 0.578125 -1.046875 C 0.597656 -1.035156 0.625 -1.023438 0.65625 -1.015625 C 0.6875 -1.003906 0.71875 -0.988281 0.75 -0.96875 L 0.953125 -0.890625 C 1.046875 -0.847656 1.117188 -0.789062 1.171875 -0.71875 C 1.234375 -0.65625 1.265625 -0.566406 1.265625 -0.453125 C 1.265625 -0.390625 1.25 -0.328125 1.21875 -0.265625 C 1.195312 -0.210938 1.160156 -0.160156 1.109375 -0.109375 C 1.054688 -0.0664062 0.992188 -0.03125 0.921875 0 C 0.847656 0.0195312 0.765625 0.03125 0.671875 0.03125 Z M 0.671875 0.03125 "/></g></g></g><g fill="#f15922" fill-opacity="1"><g transform="translate(69.101532, 2.138549)"><g><path d="M 0.5 0 L 0.5 -1.28125 L 0.0625 -1.28125 L 0.0625 -1.578125 L 1.28125 -1.578125 L 1.28125 -1.28125 L 0.859375 -1.28125 L 0.859375 0 Z M 0.5 0 "/></g></g></g><g fill="#f15922" fill-opacity="1"><g transform="translate(70.615618, 2.138549)"><g><path d="M 0.359375 0.03125 C 0.296875 0.03125 0.242188 0.0078125 0.203125 -0.03125 C 0.160156 -0.0703125 0.140625 -0.125 0.140625 -0.1875 C 0.140625 -0.257812 0.160156 -0.316406 0.203125 -0.359375 C 0.242188 -0.398438 0.296875 -0.421875 0.359375 -0.421875 C 0.421875 -0.421875 0.472656 -0.398438 0.515625 -0.359375 C 0.554688 -0.316406 0.578125 -0.257812 0.578125 -0.1875 C 0.578125 -0.125 0.554688 -0.0703125 0.515625 -0.03125 C 0.472656 0.0078125 0.421875 0.03125 0.359375 0.03125 Z M 0.359375 0.03125 "/></g></g></g><g fill="#f15922" fill-opacity="1"><g transform="translate(71.511512, 2.138549)"><g/></g></g><g fill="#f15922" fill-opacity="1"><g transform="translate(72.165926, 2.138549)"><g><path d="M 0.09375 0 L 0.09375 -0.203125 C 0.1875 -0.296875 0.273438 -0.378906 0.359375 -0.453125 C 0.441406 -0.535156 0.507812 -0.613281 0.5625 -0.6875 C 0.625 -0.757812 0.671875 -0.820312 0.703125 -0.875 C 0.742188 -0.9375 0.765625 -1 0.765625 -1.0625 C 0.765625 -1.132812 0.742188 -1.1875 0.703125 -1.21875 C 0.660156 -1.257812 0.609375 -1.28125 0.546875 -1.28125 C 0.484375 -1.28125 0.429688 -1.265625 0.390625 -1.234375 C 0.347656 -1.203125 0.304688 -1.164062 0.265625 -1.125 L 0.078125 -1.328125 C 0.148438 -1.398438 0.222656 -1.457031 0.296875 -1.5 C 0.378906 -1.539062 0.476562 -1.5625 0.59375 -1.5625 C 0.664062 -1.5625 0.734375 -1.550781 0.796875 -1.53125 C 0.859375 -1.507812 0.910156 -1.476562 0.953125 -1.4375 C 1.003906 -1.394531 1.039062 -1.34375 1.0625 -1.28125 C 1.082031 -1.21875 1.09375 -1.148438 1.09375 -1.078125 C 1.09375 -1.015625 1.078125 -0.945312 1.046875 -0.875 C 1.023438 -0.8125 0.988281 -0.742188 0.9375 -0.671875 C 0.894531 -0.609375 0.84375 -0.539062 0.78125 -0.46875 C 0.726562 -0.40625 0.671875 -0.34375 0.609375 -0.28125 C 0.640625 -0.28125 0.679688 -0.28125 0.734375 -0.28125 C 0.785156 -0.289062 0.828125 -0.296875 0.859375 -0.296875 L 1.171875 -0.296875 L 1.171875 0 Z M 0.09375 0 "/></g></g></g><g fill="#f15922" fill-opacity="1"><g transform="translate(73.612397, 2.138549)"><g><path d="M 0.640625 0.03125 C 0.554688 0.03125 0.476562 0.015625 0.40625 -0.015625 C 0.34375 -0.0546875 0.285156 -0.109375 0.234375 -0.171875 C 0.191406 -0.242188 0.15625 -0.328125 0.125 -0.421875 C 0.101562 -0.523438 0.09375 -0.644531 0.09375 -0.78125 C 0.09375 -0.90625 0.101562 -1.015625 0.125 -1.109375 C 0.15625 -1.210938 0.191406 -1.296875 0.234375 -1.359375 C 0.285156 -1.429688 0.34375 -1.484375 0.40625 -1.515625 C 0.476562 -1.546875 0.554688 -1.5625 0.640625 -1.5625 C 0.722656 -1.5625 0.796875 -1.546875 0.859375 -1.515625 C 0.929688 -1.484375 0.988281 -1.429688 1.03125 -1.359375 C 1.082031 -1.296875 1.117188 -1.210938 1.140625 -1.109375 C 1.171875 -1.015625 1.1875 -0.90625 1.1875 -0.78125 C 1.1875 -0.644531 1.171875 -0.523438 1.140625 -0.421875 C 1.117188 -0.328125 1.082031 -0.242188 1.03125 -0.171875 C 0.988281 -0.109375 0.929688 -0.0546875 0.859375 -0.015625 C 0.796875 0.015625 0.722656 0.03125 0.640625 0.03125 Z M 0.640625 -0.25 C 0.671875 -0.25 0.695312 -0.253906 0.71875 -0.265625 C 0.75 -0.285156 0.773438 -0.316406 0.796875 -0.359375 C 0.816406 -0.398438 0.832031 -0.453125 0.84375 -0.515625 C 0.851562 -0.585938 0.859375 -0.675781 0.859375 -0.78125 C 0.859375 -0.882812 0.851562 -0.96875 0.84375 -1.03125 C 0.832031 -1.101562 0.816406 -1.15625 0.796875 -1.1875 C 0.773438 -1.226562 0.75 -1.253906 0.71875 -1.265625 C 0.695312 -1.285156 0.671875 -1.296875 0.640625 -1.296875 C 0.609375 -1.296875 0.578125 -1.285156 0.546875 -1.265625 C 0.523438 -1.253906 0.503906 -1.226562 0.484375 -1.1875 C 0.460938 -1.15625 0.445312 -1.101562 0.4375 -1.03125 C 0.425781 -0.96875 0.421875 -0.882812 0.421875 -0.78125 C 0.421875 -0.675781 0.425781 -0.585938 0.4375 -0.515625 C 0.445312 -0.453125 0.460938 -0.398438 0.484375 -0.359375 C 0.503906 -0.316406 0.523438 -0.285156 0.546875 -0.265625 C 0.578125 -0.253906 0.609375 -0.25 0.640625 -0.25 Z M 0.640625 -0.25 "/></g></g></g><g fill="#f15922" fill-opacity="1"><g transform="translate(75.058869, 2.138549)"><g><path d="M 0.640625 0.03125 C 0.554688 0.03125 0.476562 0.015625 0.40625 -0.015625 C 0.34375 -0.0546875 0.285156 -0.109375 0.234375 -0.171875 C 0.191406 -0.242188 0.15625 -0.328125 0.125 -0.421875 C 0.101562 -0.523438 0.09375 -0.644531 0.09375 -0.78125 C 0.09375 -0.90625 0.101562 -1.015625 0.125 -1.109375 C 0.15625 -1.210938 0.191406 -1.296875 0.234375 -1.359375 C 0.285156 -1.429688 0.34375 -1.484375 0.40625 -1.515625 C 0.476562 -1.546875 0.554688 -1.5625 0.640625 -1.5625 C 0.722656 -1.5625 0.796875 -1.546875 0.859375 -1.515625 C 0.929688 -1.484375 0.988281 -1.429688 1.03125 -1.359375 C 1.082031 -1.296875 1.117188 -1.210938 1.140625 -1.109375 C 1.171875 -1.015625 1.1875 -0.90625 1.1875 -0.78125 C 1.1875 -0.644531 1.171875 -0.523438 1.140625 -0.421875 C 1.117188 -0.328125 1.082031 -0.242188 1.03125 -0.171875 C 0.988281 -0.109375 0.929688 -0.0546875 0.859375 -0.015625 C 0.796875 0.015625 0.722656 0.03125 0.640625 0.03125 Z M 0.640625 -0.25 C 0.671875 -0.25 0.695312 -0.253906 0.71875 -0.265625 C 0.75 -0.285156 0.773438 -0.316406 0.796875 -0.359375 C 0.816406 -0.398438 0.832031 -0.453125 0.84375 -0.515625 C 0.851562 -0.585938 0.859375 -0.675781 0.859375 -0.78125 C 0.859375 -0.882812 0.851562 -0.96875 0.84375 -1.03125 C 0.832031 -1.101562 0.816406 -1.15625 0.796875 -1.1875 C 0.773438 -1.226562 0.75 -1.253906 0.71875 -1.265625 C 0.695312 -1.285156 0.671875 -1.296875 0.640625 -1.296875 C 0.609375 -1.296875 0.578125 -1.285156 0.546875 -1.265625 C 0.523438 -1.253906 0.503906 -1.226562 0.484375 -1.1875 C 0.460938 -1.15625 0.445312 -1.101562 0.4375 -1.03125 C 0.425781 -0.96875 0.421875 -0.882812 0.421875 -0.78125 C 0.421875 -0.675781 0.425781 -0.585938 0.4375 -0.515625 C 0.445312 -0.453125 0.460938 -0.398438 0.484375 -0.359375 C 0.503906 -0.316406 0.523438 -0.285156 0.546875 -0.265625 C 0.578125 -0.253906 0.609375 -0.25 0.640625 -0.25 Z M 0.640625 -0.25 "/></g></g></g><g fill="#f15922" fill-opacity="1"><g transform="translate(76.505341, 2.138549)"><g><path d="M 0.09375 0 L 0.09375 -0.203125 C 0.1875 -0.296875 0.273438 -0.378906 0.359375 -0.453125 C 0.441406 -0.535156 0.507812 -0.613281 0.5625 -0.6875 C 0.625 -0.757812 0.671875 -0.820312 0.703125 -0.875 C 0.742188 -0.9375 0.765625 -1 0.765625 -1.0625 C 0.765625 -1.132812 0.742188 -1.1875 0.703125 -1.21875 C 0.660156 -1.257812 0.609375 -1.28125 0.546875 -1.28125 C 0.484375 -1.28125 0.429688 -1.265625 0.390625 -1.234375 C 0.347656 -1.203125 0.304688 -1.164062 0.265625 -1.125 L 0.078125 -1.328125 C 0.148438 -1.398438 0.222656 -1.457031 0.296875 -1.5 C 0.378906 -1.539062 0.476562 -1.5625 0.59375 -1.5625 C 0.664062 -1.5625 0.734375 -1.550781 0.796875 -1.53125 C 0.859375 -1.507812 0.910156 -1.476562 0.953125 -1.4375 C 1.003906 -1.394531 1.039062 -1.34375 1.0625 -1.28125 C 1.082031 -1.21875 1.09375 -1.148438 1.09375 -1.078125 C 1.09375 -1.015625 1.078125 -0.945312 1.046875 -0.875 C 1.023438 -0.8125 0.988281 -0.742188 0.9375 -0.671875 C 0.894531 -0.609375 0.84375 -0.539062 0.78125 -0.46875 C 0.726562 -0.40625 0.671875 -0.34375 0.609375 -0.28125 C 0.640625 -0.28125 0.679688 -0.28125 0.734375 -0.28125 C 0.785156 -0.289062 0.828125 -0.296875 0.859375 -0.296875 L 1.171875 -0.296875 L 1.171875 0 Z M 0.09375 0 "/></g></g></g><g clip-path="url(#7800578ff6)"><path fill="#01abf7" d="M 75.066406 27.457031 C 74.941406 28.417969 74.316406 28.722656 73.421875 28.714844 C 73.410156 28.714844 73.394531 28.714844 73.382812 28.714844 C 71.039062 29.03125 68.394531 28.757812 66.019531 28.78125 C 63.390625 28.800781 60.753906 28.808594 58.125 28.808594 C 52.976562 28.808594 47.832031 28.78125 42.683594 28.820312 C 41.390625 28.828125 41.082031 27.5625 41.109375 26.289062 C 41.101562 26.25 41.097656 26.207031 41.089844 26.164062 C 41.082031 26.074219 41.074219 25.988281 41.082031 25.898438 C 41.0625 25.820312 41.054688 25.746094 41.0625 25.648438 C 41.125 24.648438 41.1875 23.515625 42.054688 23.101562 C 42.171875 23.003906 42.335938 22.941406 42.542969 22.960938 C 42.558594 22.960938 42.566406 22.960938 42.578125 22.960938 C 42.621094 22.953125 42.65625 22.949219 42.699219 22.949219 C 48.0625 22.949219 53.4375 23.019531 58.816406 23.03125 C 61.324219 23.039062 63.828125 23.03125 66.339844 23.011719 C 68.632812 22.996094 70.988281 22.792969 73.269531 22.984375 C 74.261719 23.066406 74.882812 23.25 75.011719 24.324219 C 75.121094 25.347656 75.199219 26.445312 75.066406 27.457031 Z M 75.066406 27.457031 " fill-opacity="1" fill-rule="nonzero"/></g><g fill="#fafffc" fill-opacity="1"><g transform="translate(45.051115, 27.008585)"><g><path d="M 1.59375 0.046875 C 1.394531 0.046875 1.210938 0.015625 1.046875 -0.046875 C 0.878906 -0.109375 0.734375 -0.195312 0.609375 -0.3125 C 0.484375 -0.4375 0.382812 -0.585938 0.3125 -0.765625 C 0.238281 -0.953125 0.203125 -1.164062 0.203125 -1.40625 C 0.203125 -1.644531 0.238281 -1.851562 0.3125 -2.03125 C 0.382812 -2.21875 0.484375 -2.375 0.609375 -2.5 C 0.734375 -2.632812 0.878906 -2.734375 1.046875 -2.796875 C 1.222656 -2.867188 1.40625 -2.90625 1.59375 -2.90625 C 1.800781 -2.90625 1.976562 -2.863281 2.125 -2.78125 C 2.269531 -2.707031 2.390625 -2.625 2.484375 -2.53125 L 2.15625 -2.125 C 2.082031 -2.1875 2.003906 -2.238281 1.921875 -2.28125 C 1.835938 -2.320312 1.734375 -2.34375 1.609375 -2.34375 C 1.503906 -2.34375 1.40625 -2.320312 1.3125 -2.28125 C 1.21875 -2.238281 1.132812 -2.175781 1.0625 -2.09375 C 1 -2.019531 0.945312 -1.925781 0.90625 -1.8125 C 0.875 -1.695312 0.859375 -1.570312 0.859375 -1.4375 C 0.859375 -1.132812 0.925781 -0.898438 1.0625 -0.734375 C 1.195312 -0.578125 1.394531 -0.5 1.65625 -0.5 C 1.71875 -0.5 1.773438 -0.503906 1.828125 -0.515625 C 1.890625 -0.535156 1.9375 -0.5625 1.96875 -0.59375 L 1.96875 -1.078125 L 1.5 -1.078125 L 1.5 -1.609375 L 2.53125 -1.609375 L 2.53125 -0.296875 C 2.4375 -0.203125 2.304688 -0.117188 2.140625 -0.046875 C 1.984375 0.015625 1.800781 0.046875 1.59375 0.046875 Z M 1.59375 0.046875 "/></g></g></g><g fill="#fafffc" fill-opacity="1"><g transform="translate(49.178869, 27.008585)"><g><path d="M 1 -1.4375 L 0.9375 -1.1875 L 1.546875 -1.1875 L 1.484375 -1.4375 C 1.441406 -1.582031 1.398438 -1.734375 1.359375 -1.890625 C 1.316406 -2.054688 1.28125 -2.210938 1.25 -2.359375 L 1.234375 -2.359375 C 1.191406 -2.210938 1.148438 -2.054688 1.109375 -1.890625 C 1.078125 -1.734375 1.039062 -1.582031 1 -1.4375 Z M -0.03125 0 L 0.859375 -2.859375 L 1.640625 -2.859375 L 2.53125 0 L 1.84375 0 L 1.671875 -0.671875 L 0.8125 -0.671875 L 0.625 0 Z M -0.03125 0 "/></g></g></g><g fill="#fafffc" fill-opacity="1"><g transform="translate(53.021801, 27.008585)"><g><path d="M 0.34375 0 L 0.34375 -2.859375 L 1.140625 -2.859375 C 1.359375 -2.859375 1.554688 -2.828125 1.734375 -2.765625 C 1.910156 -2.710938 2.0625 -2.628906 2.1875 -2.515625 C 2.3125 -2.398438 2.40625 -2.253906 2.46875 -2.078125 C 2.539062 -1.898438 2.578125 -1.6875 2.578125 -1.4375 C 2.578125 -1.195312 2.539062 -0.984375 2.46875 -0.796875 C 2.40625 -0.617188 2.3125 -0.46875 2.1875 -0.34375 C 2.0625 -0.226562 1.910156 -0.140625 1.734375 -0.078125 C 1.566406 -0.0234375 1.378906 0 1.171875 0 Z M 0.984375 -0.515625 L 1.109375 -0.515625 C 1.222656 -0.515625 1.328125 -0.53125 1.421875 -0.5625 C 1.523438 -0.59375 1.613281 -0.644531 1.6875 -0.71875 C 1.757812 -0.789062 1.8125 -0.882812 1.84375 -1 C 1.882812 -1.125 1.90625 -1.269531 1.90625 -1.4375 C 1.90625 -1.601562 1.882812 -1.742188 1.84375 -1.859375 C 1.8125 -1.972656 1.757812 -2.066406 1.6875 -2.140625 C 1.613281 -2.210938 1.523438 -2.257812 1.421875 -2.28125 C 1.328125 -2.3125 1.222656 -2.328125 1.109375 -2.328125 L 0.984375 -2.328125 Z M 0.984375 -0.515625 "/></g></g></g><g fill="#fafffc" fill-opacity="1"><g transform="translate(57.136411, 27.008585)"><g><path d="M 1.59375 0.046875 C 1.394531 0.046875 1.210938 0.015625 1.046875 -0.046875 C 0.878906 -0.109375 0.734375 -0.195312 0.609375 -0.3125 C 0.484375 -0.4375 0.382812 -0.585938 0.3125 -0.765625 C 0.238281 -0.953125 0.203125 -1.164062 0.203125 -1.40625 C 0.203125 -1.644531 0.238281 -1.851562 0.3125 -2.03125 C 0.382812 -2.21875 0.484375 -2.375 0.609375 -2.5 C 0.734375 -2.632812 0.878906 -2.734375 1.046875 -2.796875 C 1.222656 -2.867188 1.40625 -2.90625 1.59375 -2.90625 C 1.800781 -2.90625 1.976562 -2.863281 2.125 -2.78125 C 2.269531 -2.707031 2.390625 -2.625 2.484375 -2.53125 L 2.15625 -2.125 C 2.082031 -2.1875 2.003906 -2.238281 1.921875 -2.28125 C 1.835938 -2.320312 1.734375 -2.34375 1.609375 -2.34375 C 1.503906 -2.34375 1.40625 -2.320312 1.3125 -2.28125 C 1.21875 -2.238281 1.132812 -2.175781 1.0625 -2.09375 C 1 -2.019531 0.945312 -1.925781 0.90625 -1.8125 C 0.875 -1.695312 0.859375 -1.570312 0.859375 -1.4375 C 0.859375 -1.132812 0.925781 -0.898438 1.0625 -0.734375 C 1.195312 -0.578125 1.394531 -0.5 1.65625 -0.5 C 1.71875 -0.5 1.773438 -0.503906 1.828125 -0.515625 C 1.890625 -0.535156 1.9375 -0.5625 1.96875 -0.59375 L 1.96875 -1.078125 L 1.5 -1.078125 L 1.5 -1.609375 L 2.53125 -1.609375 L 2.53125 -0.296875 C 2.4375 -0.203125 2.304688 -0.117188 2.140625 -0.046875 C 1.984375 0.015625 1.800781 0.046875 1.59375 0.046875 Z M 1.59375 0.046875 "/></g></g></g><g fill="#fafffc" fill-opacity="1"><g transform="translate(61.264165, 27.008585)"><g><path d="M 0.34375 0 L 0.34375 -2.859375 L 2.125 -2.859375 L 2.125 -2.3125 L 0.984375 -2.3125 L 0.984375 -1.734375 L 1.953125 -1.734375 L 1.953125 -1.203125 L 0.984375 -1.203125 L 0.984375 -0.546875 L 2.171875 -0.546875 L 2.171875 0 Z M 0.34375 0 "/></g></g></g><g fill="#fafffc" fill-opacity="1"><g transform="translate(64.997549, 27.008585)"><g><path d="M 0.890625 0 L 0.890625 -2.3125 L 0.109375 -2.3125 L 0.109375 -2.859375 L 2.328125 -2.859375 L 2.328125 -2.3125 L 1.546875 -2.3125 L 1.546875 0 Z M 0.890625 0 "/></g></g></g><g fill="#fafffc" fill-opacity="1"><g transform="translate(68.765986, 27.008585)"><g><path d="M 1.203125 0.046875 C 1.015625 0.046875 0.828125 0.015625 0.640625 -0.046875 C 0.460938 -0.117188 0.300781 -0.222656 0.15625 -0.359375 L 0.515625 -0.796875 C 0.617188 -0.710938 0.734375 -0.640625 0.859375 -0.578125 C 0.984375 -0.523438 1.101562 -0.5 1.21875 -0.5 C 1.351562 -0.5 1.453125 -0.523438 1.515625 -0.578125 C 1.585938 -0.628906 1.625 -0.695312 1.625 -0.78125 C 1.625 -0.820312 1.613281 -0.859375 1.59375 -0.890625 C 1.570312 -0.921875 1.539062 -0.945312 1.5 -0.96875 C 1.46875 -1 1.425781 -1.023438 1.375 -1.046875 C 1.320312 -1.066406 1.269531 -1.09375 1.21875 -1.125 L 0.84375 -1.28125 C 0.769531 -1.3125 0.695312 -1.347656 0.625 -1.390625 C 0.5625 -1.441406 0.5 -1.5 0.4375 -1.5625 C 0.382812 -1.625 0.34375 -1.695312 0.3125 -1.78125 C 0.28125 -1.863281 0.265625 -1.957031 0.265625 -2.0625 C 0.265625 -2.175781 0.289062 -2.285156 0.34375 -2.390625 C 0.394531 -2.492188 0.460938 -2.582031 0.546875 -2.65625 C 0.640625 -2.738281 0.75 -2.800781 0.875 -2.84375 C 1 -2.882812 1.132812 -2.90625 1.28125 -2.90625 C 1.445312 -2.90625 1.609375 -2.875 1.765625 -2.8125 C 1.929688 -2.75 2.078125 -2.65625 2.203125 -2.53125 L 1.875 -2.125 C 1.78125 -2.195312 1.6875 -2.25 1.59375 -2.28125 C 1.5 -2.320312 1.394531 -2.34375 1.28125 -2.34375 C 1.164062 -2.34375 1.078125 -2.320312 1.015625 -2.28125 C 0.953125 -2.238281 0.921875 -2.175781 0.921875 -2.09375 C 0.921875 -2.050781 0.929688 -2.015625 0.953125 -1.984375 C 0.972656 -1.953125 1.003906 -1.921875 1.046875 -1.890625 C 1.085938 -1.867188 1.132812 -1.847656 1.1875 -1.828125 C 1.238281 -1.804688 1.296875 -1.78125 1.359375 -1.75 L 1.71875 -1.609375 C 1.894531 -1.535156 2.03125 -1.4375 2.125 -1.3125 C 2.226562 -1.195312 2.28125 -1.035156 2.28125 -0.828125 C 2.28125 -0.710938 2.253906 -0.597656 2.203125 -0.484375 C 2.160156 -0.378906 2.09375 -0.285156 2 -0.203125 C 1.90625 -0.128906 1.789062 -0.0664062 1.65625 -0.015625 C 1.53125 0.0234375 1.378906 0.046875 1.203125 0.046875 Z M 1.203125 0.046875 "/></g></g></g></svg>